<svg width="1789" height="1813" viewBox="0 0 1789 1813" fill="none" xmlns="http://www.w3.org/2000/svg">
<path d="M960.02 771.304C918.587 759.417 1232.5 412.464 1278.26 360.464C1278.26 360.464 913 662.964 877.379 665.465C841.759 667.965 976 541.464 976 541.464C976 541.464 657 699.963 753.5 608.464C850 516.964 624.033 699.464 625.5 653.964C626.967 608.464 840 473.464 840 473.464C840 473.464 562 579.464 524 560.464C486 541.464 701.5 434.964 701.5 434.964L136 560.464L476.5 970.464L1083 1629.46C1083 1629.46 1478.55 915.91 1262 997.464C988.5 1100.46 1197.23 911.143 1179 876.464C1163.89 847.722 1073 990.965 1036.5 985.965C999.999 980.965 1097.5 821.964 1097.5 821.964C1097.5 821.964 960.02 923.465 997.999 876.465C1035.98 829.465 1151.5 697.464 1151.5 697.464C1140.35 707.119 1068.59 760.164 1056 748.465C1043.41 736.765 1239 517.465 1214.76 516.965C1190.52 516.465 994.068 781.071 960.02 771.304Z" fill="#272626"/>
<rect y="1058.14" width="509" height="965" transform="rotate(-38.5399 0 1058.14)" fill="#272626"/>
</svg>
